<svg xmlns="http://www.w3.org/2000/svg" viewBox="0 0 24 24"><path fill="currentColor" d="M13.81 20q.18.02.32.08c.53.24.74.87.49 1.39a3 3 0 0 1-4.85.54 2 2 0 0 1-.5-.9c-.08-.69.6-1.27 1.28-1.07a1 1 0 0 1 .46.29l.24.33a1 1 0 0 0 1.36.13c.18-.13.26-.33.4-.5q.34-.3.8-.29M12.17 1a7 7 0 0 1 6.69 5.6c.18.94.11 1.56.17 2.52q.07 1.4.5 2.72.43 1.13 1.21 2.03l.47.5c.26.27.5.52.64.87.3.72.14 1.57-.4 2.14-.38.4-.9.61-1.45.62H4a2 2 0 0 1-1.45-.62 2 2 0 0 1-.4-2.15c.15-.34.38-.59.64-.85l.46-.51q.8-.9 1.21-2.03.44-1.32.5-2.72c.07-.96 0-1.58.18-2.52A7.04 7.04 0 0 1 12.17 1M4 16h16c-.07-.09 0 0-.23-.24l-.26-.27q-.43-.46-.8-.97a8.4 8.4 0 0 1-1.45-3.5q-.19-1.07-.24-2.16c-.03-.46 0-.92-.05-1.37a5 5 0 0 0-4.45-4.46 5.05 5.05 0 0 0-5.44 4.09c-.1.56-.08 1.14-.1 1.72q-.03 1.12-.24 2.21a9 9 0 0 1-2.23 4.42c-.15.16-.37.36-.5.53"/></svg>