<svg xmlns="http://www.w3.org/2000/svg" viewBox="0 0 24 24"><path fill="currentColor" d="M9 19h1c.54.03.98.4 1 .96A1 1 0 0 1 10 21H6c-.54-.03-.98-.4-1-.96A1 1 0 0 1 6 19h1v-4H6c-.54-.03-.98-.4-1-.96A1 1 0 0 1 6 13h2c.46.03.85.29.97.75.03.1.02.13.03.25zm7.13-6A3 3 0 0 1 19 16v2.02a3 3 0 0 1-1 2.22A3 3 0 0 1 13 18v-2.03c.02-.84.36-1.65 1-2.2.6-.53 1.34-.79 2.13-.77m-.18 2a1 1 0 0 0-.95 1.01V18a1 1 0 0 0 1 1.01c.57-.02.99-.45 1-1.01v-2a1 1 0 0 0-1.05-1M17 9h1c.54.03.98.4 1 .96A1 1 0 0 1 18 11h-4c-.54-.03-.98-.4-1-.96A1 1 0 0 1 14 9h1V5h-1c-.54-.03-.98-.4-1-.96A1 1 0 0 1 14 3h2a1 1 0 0 1 .97.75c.03.1.02.13.03.25zM8.13 3A3 3 0 0 1 11 6v2.03a3 3 0 0 1-1 2.2A3 3 0 0 1 5 8V5.98c.02-.83.36-1.65 1-2.2.6-.53 1.34-.79 2.13-.77m-.18 2a1 1 0 0 0-.95 1V8a1 1 0 0 0 1 1.01c.57-.02.99-.45 1-1.01V6a1 1 0 0 0-1.05-1"/></svg>