<svg xmlns="http://www.w3.org/2000/svg" viewBox="0 0 24 24"><path fill="currentColor" d="M3.07 2A1 1 0 0 1 4 3v15.99c.01.4.23.76.61.93q.2.08.4.08H21c.54.03.98.4 1 .96A1 1 0 0 1 21 22H5a3 3 0 0 1-2.42-1.22A3 3 0 0 1 2 19V3a1 1 0 0 1 1.07-1m17.04 2c.5.09.87.44.89.96.01.28-.14.7-.23.98q-.31 1-.73 1.97a17 17 0 0 1-1.48 2.71 7 7 0 0 1-1.26 1.43 3.4 3.4 0 0 1-2.74.92c-1-.18-1.64-.82-2.2-1.63l-.37-.56c-.2-.27-.45-.67-.8-.76-.67-.17-1.2.58-1.5 1.06a16 16 0 0 0-1.5 4.29l-.22.87q-.2.62-.84.75c-.72.05-1.25-.5-1.1-1.23l.21-.87c.35-1.4.73-2.8 1.35-4.11a5 5 0 0 1 2.2-2.5 2.8 2.8 0 0 1 2.04-.15c.8.26 1.34.85 1.81 1.53l.37.56c.2.27.45.67.8.76.57.14 1.17-.4 1.53-.77.91-.99 1.6-2.4 2.09-3.64q.23-.6.44-1.23c.08-.26.15-.67.3-.9.2-.31.56-.45.94-.43"/></svg>