<svg xmlns="http://www.w3.org/2000/svg" viewBox="0 0 24 24"><path fill="currentColor" d="M21.3 22.72c-.3.15-.47.26-.8.28H4a3 3 0 0 1-3-3v-4a3 3 0 0 1 3-3h7.59l-2-2H4a3 3 0 0 1-3-3V3.47q0-.54.09-1.07a1 1 0 0 1 .44-1.28c.4-.21.85-.13 1.18.17l20 20c.33.38.4.89.1 1.3a1 1 0 0 1-1.5.13M19.6 21l-6-6H4a1 1 0 0 0-1.01 1.01V20A1 1 0 0 0 4 21.01zM6.12 17c.6.1.95.58.87 1.18a1 1 0 0 1-1.98-.36 1 1 0 0 1 1.1-.81m13.9-4A3.03 3.03 0 0 1 23 16v1a1 1 0 0 1-.85.99c-.63.06-1.13-.35-1.15-.99v-.99q-.03-.59-.52-.89a1 1 0 0 0-.5-.12H19c-.54-.03-.98-.4-1-.96A1 1 0 0 1 19 13zm0-12A3 3 0 0 1 23 4v4a3 3 0 0 1-2.87 3H15c-.54-.03-.98-.4-1-.96A1 1 0 0 1 15 9h4.99a1 1 0 0 0 1-.95L21 8V4a1 1 0 0 0-1.01-1.01H7c-.54-.03-.98-.4-1-.96A1 1 0 0 1 7 1zM7.6 9 3 4.42v3.57A1 1 0 0 0 4.01 9z"/></svg>