<svg xmlns="http://www.w3.org/2000/svg" viewBox="0 0 24 24"><path fill="currentColor" d="M17.44 14.04q.56-.07 1.12 0 .08-.21.22-.4c.27-.3.72-.42 1.1-.27a1 1 0 0 1 .65.93q0 .27-.12.5.45.35.79.8.2-.1.43-.13c.41-.03.8.21.98.58a1 1 0 0 1-.2 1.12q-.2.18-.45.27.08.56 0 1.12.22.08.4.22a1 1 0 0 1 .27 1.1 1 1 0 0 1-.92.65q-.28 0-.52-.12-.33.45-.79.79.1.2.13.43a1 1 0 0 1-.58.98 1 1 0 0 1-1.12-.2q-.18-.2-.27-.45-.56.08-1.12 0-.08.22-.22.4a1 1 0 0 1-1.1.27 1 1 0 0 1-.65-.92q0-.28.12-.52-.45-.34-.79-.78-.2.08-.43.12a1 1 0 0 1-.97-.58 1 1 0 0 1 .2-1.12q.18-.18.44-.27a4 4 0 0 1 0-1.12 1 1 0 0 1-.4-.22c-.3-.27-.42-.72-.27-1.1a1 1 0 0 1 .93-.65q.27 0 .5.12.34-.45.8-.79a1 1 0 0 1 .56-1.45 1 1 0 0 1 1.08.32q.14.17.2.37m-4.1-1.06c.26.52-.05 1.17-.58 1.35-.38.12-.67-.02-1.03-.11A7 7 0 0 0 3 20.58c-.01.22.01.44-.04.65A1 1 0 0 1 1 21.17c-.04-.29 0-.67.02-.96a9.1 9.1 0 0 1 5.33-7.44 5.96 5.96 0 0 1 .5-9.89 6 6 0 0 1 7.6 1.1q1.06 1.22 1.42 2.8a6 6 0 0 1-2.53 6.2M17.9 16a2 2 0 0 0-1.9 2.1 2 2 0 0 0 2.1 1.9 2 2 0 0 0 1.9-2.1 2 2 0 0 0-2.1-1.9m-8-12c-1.1.04-2.12.5-2.86 1.31A4 4 0 0 0 6 8.11c.04 1.08.5 2.11 1.31 2.85.77.7 1.76 1.05 2.8 1.04a4 4 0 0 0 2.85-1.31A4 4 0 0 0 14 7.89a4 4 0 0 0-1.31-2.85A4 4 0 0 0 9.89 4"/></svg>